<?xml version="1.0" encoding="utf-8"?><svg version="1.1" id="Layer_1" xmlns="http://www.w3.org/2000/svg" xmlns:xlink="http://www.w3.org/1999/xlink" x="0px" y="0px" width="24" height="24" viewBox="0 0 32 32" enable-background="new 0 0 32 32" xml:space="preserve"><g fill="#ffffff"><path id="path1" d="M23.573,19.682c1.026,9.668-6.165,11.171-6.165,11.171c-4.52,0.938-6.78-2.911-6.78-2.911   C21.724,30.853,23.573,19.682,23.573,19.682z M2.203,17.522c1.952,10.325,13.767,7.04,13.767,7.04   c-9.041,5.069-13.664-0.188-13.664-0.188C-0.571,20.995,2.203,17.522,2.203,17.522z M23.675,11.89   c9.453,4.412,6.986,10.796,6.986,10.796c-1.644,3.942-6.369,3.66-6.369,3.66C32.819,19.399,23.675,11.89,23.675,11.89z    M24.189,6.069c2.979,0,4.726,1.408,4.726,1.408c3.493,2.723,1.541,6.666,1.541,6.666c-4.109-9.763-14.897-4.318-14.897-4.318   C18.95,6.914,21.93,6.069,24.189,6.069z M7.443,5.788h0.512c-8.937,6.57,0,14.362,0,14.362C-1.29,15.363,1.484,9.167,1.484,9.167   C2.923,6.163,6.21,5.788,7.443,5.788z M16.175,1c3.494,0,5.343,3.098,5.343,3.098c-10.993-2.91-12.946,8.167-12.946,8.167   C7.546,2.596,14.737,1.094,14.737,1.094C15.251,1,15.661,1,16.175,1z"><animateTransform attributeName="transform" attributeType="XML" type="rotate" from="0, 16, 16" to="360, 16, 16" dur="1.5s" repeatCount="indefinite" /></path></g></svg>